<?xml version="1.0" encoding="UTF-8"?>
<svg width="1395px" height="907px" viewBox="0 0 1395 907" version="1.1" xmlns="http://www.w3.org/2000/svg" xmlns:xlink="http://www.w3.org/1999/xlink">
    <!-- Generator: Sketch 48.2 (47327) - http://www.bohemiancoding.com/sketch -->
    <title>Artboard</title>
    <desc>Created with Sketch.</desc>
    <defs>
        <linearGradient x1="46.0562817%" y1="74.6782738%" x2="68.8740034%" y2="55.8662693%" id="linearGradient-1">
            <stop stop-color="#6E557B" offset="0%"></stop>
            <stop stop-color="#B3DDF2" offset="100%"></stop>
        </linearGradient>
        <linearGradient x1="42.6441796%" y1="80.7158194%" x2="59.1987887%" y2="50%" id="linearGradient-2">
            <stop stop-color="#6E557B" offset="0%"></stop>
            <stop stop-color="#B3DDF2" offset="100%"></stop>
        </linearGradient>
        <linearGradient x1="50%" y1="0%" x2="50%" y2="100%" id="linearGradient-3">
            <stop stop-color="#FFFFFF" stop-opacity="0.5" offset="0%"></stop>
            <stop stop-color="#000000" stop-opacity="0.5" offset="100%"></stop>
        </linearGradient>
    </defs>
    <g id="Page-1" stroke="none" stroke-width="1" fill="none" fill-rule="evenodd">
        <g id="Artboard">
            <g id="Group" transform="translate(-31.000000, 414.000000)" stroke-width="6">
                <path d="M392.801444,305.298669 C441.126359,307.586781 478.690249,269.374427 478.690249,219.944942 C478.690249,198.982647 470.246732,174.460591 453.392253,158.196215 C436.537774,141.93184 407.954787,133.79416 391.190249,134.587936 C374.425711,135.381712 328.598073,147.247187 319.201897,189.975847 C297.724512,190.350736 290.76382,190.472235 298.319822,190.340345" id="Oval" stroke="#6E557B" transform="translate(387.030186, 219.965623) rotate(181.000000) translate(-387.030186, -219.965623) "></path>
                <path d="M530.610369,59.9034787 C504.409636,41.9569193 493.93426,43 468.061911,43 C418.632425,43 378.805785,83.961186 381.093898,134.520012" id="Oval" stroke="#6E557B" stroke-linecap="round" stroke-linejoin="round"></path>
                <path d="M314.449384,154.906507 C280.573668,122.32631 211.400434,128.015769 179.634117,160.592344 C146.619493,193.16892 135.914699,260.349662 173.121657,289.913891 C255.788991,305.982793 309.094322,316.3443 425.770525,339.023856 C445.703364,344.60592 446.579432,355.203415 444.600908,365.382039 C442.622383,375.560664 434.428105,383.055739 417.20177,383.106278 C391.162944,378.044843 361.356236,372.251006 327.781647,365.724767 C229.344234,346.590472 134.396416,328.134486 42.9381939,310.356809 C25.636938,308.258597 20.2424167,317.192012 18.1086781,328.169145 C15.9749395,339.146279 16.5450915,347.262944 34.8054959,352.195912 C115.264387,367.835536 201.126845,384.525508 292.392869,402.265826 C339.40622,411.404295 411.298285,425.378697 508.069064,444.189031 C653.225233,472.404532 751.13841,331.415383 871.2639,304.793432 C951.34756,287.045465 1136.02976,283.980865 1425.31049,295.599633 L1357.56941,224.050668 L1439.55358,158.972684" id="Oval" stroke="url(#linearGradient-1)" transform="translate(728.400141, 290.516337) rotate(-11.000000) translate(-728.400141, -290.516337) "></path>
                <path d="M230.105122,241.741998 C232.584731,228.985516 224.323256,219.003729 214.660445,217.125469 C204.997634,215.247208 195.446956,222.605863 193.124532,234.5537 C191.553319,242.636889 195.297049,252.899582 207.254852,255.223943 C214.85264,256.700804 224.849823,255.339567 229.080519,243.185496 C229.189472,242.872493 229.531006,242.391327 230.105122,241.741998 C327.784685,260.728982 425.009857,279.627641 521.780636,298.437975 C666.936805,326.653476 764.849982,185.664327 884.975472,159.042376 C965.059132,141.294408 1145.86493,136.487332 1427.39286,144.621148" id="Oval" stroke="url(#linearGradient-2)" stroke-dasharray="159,11,4000,27" transform="translate(810.088932, 221.469039) rotate(-11.000000) translate(-810.088932, -221.469039) "></path>
                <path d="M480.167259,221.016981 C480.167259,221.098769 436.584838,220.689806 381.526891,221.016981 C381.526891,226.936878 377.223388,232.513493 370.383859,232.513493 C363.54433,232.513493 359,227.699361 359,221.016981 C359,214.3346 365.166718,210 370.383859,210 C374.399358,210 381.526891,212.623103 381.526891,220.689806 C423.047145,221.256746 480.167259,220.935193 480.167259,221.016981 Z" id="Path-8" stroke="#6E557B" stroke-linecap="round" stroke-linejoin="round"></path>
            </g>
            <g id="buildin" transform="translate(522.000000, 2.000000)" stroke="#50E6B6">
                <path d="M1,453 L33,440" id="terrace-mid-right" stroke-width="4" stroke-linecap="round" stroke-linejoin="round"></path>
                <polygon id="Path-4" stroke-width="4" stroke-linecap="round" stroke-linejoin="round" points="69.6227261 323.497548 69.6227261 598.848825 105.752547 577.740155 105.752547 303.542325"></polygon>
                <path d="M176.5,430.5 L212,451" id="terrace-mid-left" stroke-width="4" stroke-linecap="round" stroke-linejoin="round"></path>
                <polygon id="terrace-center-bottom" stroke-width="3" fill="url(#linearGradient-3)" stroke-linecap="round" stroke-linejoin="round" points="105.752547 577.740155 70.7054095 598.693477 105.752547 577.740155 139.82562 597.360274"></polygon>
                <polygon id="Path-3" stroke-width="4" stroke-linecap="round" stroke-linejoin="round" points="36.7323335 269.685778 36.7323335 305.419412 73.5340194 287.927702"></polygon>
                <polygon id="Path-2" stroke-width="4" stroke-linecap="round" stroke-linejoin="round" points="105.564823 303.720348 69.7175954 323.381004 33.1334255 307.313975 73.3618931 288.121231 36.8232212 269.698927 73.3618931 252.861459 73.3618931 288.010948"></polygon>
                <polyline id="left-main" stroke-width="5" stroke-linecap="round" stroke-linejoin="round" points="100.125535 674.016742 100.125535 617.472284 69.5177376 598.894111 69.5177376 323.851482 33.4717087 307.894926 33.4717087 472.093403 1.04344207 453.728898 3.2292875 714.64044"></polyline>
                <polygon id="inner-center" stroke-width="5" stroke-linecap="round" stroke-linejoin="round" points="73.5340194 136.755863 73.3618931 288.010948 105.492148 303.71461 105.752547 577.740155 139.82562 597.360274 139.210482 169"></polygon>
                <path d="M108.5,0.5 L108.5,142.5" id="Line" stroke-width="6" stroke-linecap="square"></path>
                <path d="M142.5,59 L142.5,160.5" id="Line" stroke-width="6" stroke-linecap="square"></path>
            </g>
            <g id="roof" transform="translate(595.000000, 120.000000)" stroke="#51E7B6" stroke-linecap="round" stroke-linejoin="round" stroke-width="4">
                <polygon id="Path-5" points="0.272252616 17.9910117 35.2238289 0.17865033 102.480339 32.9106317 66.0148804 50.2483023"></polygon>
            </g>
            <g id="Group-2" transform="translate(1045.000000, 561.000000) rotate(-12.000000) translate(-1045.000000, -561.000000) translate(840.000000, 512.000000)" fill="#FF0000">
                <polygon id="Star" transform="translate(153.416228, 48.980741) scale(-1, -1) rotate(-28.000000) translate(-153.416228, -48.980741) " points="153.416228 65.1941243 133.082119 82.1061952 138.487314 57.0874328 112.748009 48.9807413 138.487314 40.8740498 133.082119 15.8552874 153.416228 32.7673583 173.750338 15.8552874 168.345143 40.8740498 194.084448 48.9807413 168.345143 57.0874328 173.750338 82.1061952"></polygon>
                <polygon id="Star" transform="translate(52.267067, 48.980741) scale(-1, -1) rotate(-28.000000) translate(-52.267067, -48.980741) " points="52.2670673 65.1941243 31.9329576 82.1061952 37.338153 57.0874328 11.598848 48.9807413 37.338153 40.8740498 31.9329576 15.8552874 52.2670673 32.7673583 72.601177 15.8552874 67.1959816 40.8740498 92.9352867 48.9807413 67.1959816 57.0874328 72.601177 82.1061952"></polygon>
                <polygon id="Star" transform="translate(357.800100, 48.980741) scale(-1, -1) rotate(-28.000000) translate(-357.800100, -48.980741) " points="357.8001 65.1941243 337.46599 82.1061952 342.871185 57.0874328 317.13188 48.9807413 342.871185 40.8740498 337.46599 15.8552874 357.8001 32.7673583 378.134209 15.8552874 372.729014 40.8740498 398.468319 48.9807413 372.729014 57.0874328 378.134209 82.1061952"></polygon>
                <polygon id="Star" transform="translate(255.608164, 48.980741) scale(-1, -1) rotate(-28.000000) translate(-255.608164, -48.980741) " points="255.608164 65.1941243 235.274054 82.1061952 240.67925 57.0874328 214.939945 48.9807413 240.67925 40.8740498 235.274054 15.8552874 255.608164 32.7673583 275.942274 15.8552874 270.537078 40.8740498 296.276383 48.9807413 270.537078 57.0874328 275.942274 82.1061952"></polygon>
            </g>
            <polyline id="Path-6" stroke="#50E6B6" stroke-width="4" stroke-linecap="round" stroke-linejoin="round" points="734 576.680906 734 453.117305 697.868888 478.960711 697.633775 153 661.510482 170.352541 662.275121 600.358875 622 619.594818 622 676"></polyline>
        </g>
    </g>
</svg>