<?xml version="1.0" encoding="UTF-8"?>
<svg width="1567px" height="889px" viewBox="0 0 1567 889" version="1.1" xmlns="http://www.w3.org/2000/svg" xmlns:xlink="http://www.w3.org/1999/xlink">
    <!-- Generator: Sketch 48.2 (47327) - http://www.bohemiancoding.com/sketch -->
    <title>Artboard</title>
    <desc>Created with Sketch.</desc>
    <defs>
        <linearGradient x1="46.0562817%" y1="74.6782738%" x2="68.8740034%" y2="55.8662693%" id="linearGradient-1">
            <stop stop-color="#6E557B" offset="0%"></stop>
            <stop stop-color="#B3DDF2" offset="100%"></stop>
        </linearGradient>
        <linearGradient x1="42.6441796%" y1="80.7158194%" x2="59.1987887%" y2="50%" id="linearGradient-2">
            <stop stop-color="#6E557B" offset="0%"></stop>
            <stop stop-color="#B3DDF2" offset="100%"></stop>
        </linearGradient>
        <linearGradient x1="0%" y1="110.932217%" x2="50%" y2="100%" id="linearGradient-3">
            <stop stop-color="#50E6B6" offset="0%"></stop>
            <stop stop-color="#70577D" offset="100%"></stop>
        </linearGradient>
        <linearGradient x1="-51.2003965%" y1="138.808847%" x2="50%" y2="100%" id="linearGradient-4">
            <stop stop-color="#50E6B6" offset="0%"></stop>
            <stop stop-color="#70577D" offset="100%"></stop>
        </linearGradient>
        <linearGradient x1="3.30253861%" y1="83.5090091%" x2="67.0996025%" y2="76.0779965%" id="linearGradient-5">
            <stop stop-color="#50E6B6" offset="0%"></stop>
            <stop stop-color="#70577D" offset="100%"></stop>
        </linearGradient>
    </defs>
    <g id="Page-1" stroke="none" stroke-width="1" fill="none" fill-rule="evenodd">
        <g id="Artboard">
            <g id="Group" transform="translate(-872.000000, -290.000000)" stroke-width="6">
                <path d="M314.449384,154.906507 C280.573668,122.32631 211.400434,128.015769 179.634117,160.592344 C146.619493,193.16892 135.914699,260.349662 173.121657,289.913891 C255.788991,305.982793 309.094322,316.3443 425.770525,339.023856 C445.703364,344.60592 446.579432,355.203415 444.600908,365.382039 C442.622383,375.560664 434.428105,383.055739 417.20177,383.106278 C391.162944,378.044843 361.356236,372.251006 327.781647,365.724767 C229.344234,346.590472 134.396416,328.134486 42.9381939,310.356809 C25.636938,308.258597 20.2424167,317.192012 18.1086781,328.169145 C15.9749395,339.146279 16.5450915,347.262944 34.8054959,352.195912 C115.264387,367.835536 201.126845,384.525508 292.392869,402.265826 C339.40622,411.404295 411.298285,425.378697 508.069064,444.189031 C653.225233,472.404532 751.13841,331.415383 871.2639,304.793432 C951.34756,287.045465 1136.02976,283.980865 1425.31049,295.599633 L1357.56941,224.050668 L1439.55358,158.972684" id="Oval" stroke="url(#linearGradient-1)" transform="translate(728.400141, 290.516337) rotate(-11.000000) translate(-728.400141, -290.516337) "></path>
                <path d="M230.105122,241.741998 C232.584731,228.985516 224.323256,219.003729 214.660445,217.125469 C204.997634,215.247208 195.446956,222.605863 193.124532,234.5537 C191.553319,242.636889 195.297049,252.899582 207.254852,255.223943 C214.85264,256.700804 224.849823,255.339567 229.080519,243.185496 C229.189472,242.872493 229.531006,242.391327 230.105122,241.741998 C327.784685,260.728982 425.009857,279.627641 521.780636,298.437975 C666.936805,326.653476 764.849982,185.664327 884.975472,159.042376 C965.059132,141.294408 1145.86493,136.487332 1427.39286,144.621148" id="Oval" stroke="url(#linearGradient-2)" stroke-dasharray="159,11,4000,27" transform="translate(810.088932, 221.469039) rotate(-11.000000) translate(-810.088932, -221.469039) "></path>
            </g>
            <g id="sun" transform="translate(64.000000, 19.000000)">
                <polygon id="Star-2" stroke="url(#linearGradient-3)" stroke-width="4" stroke-dasharray="141,35,8,26" points="672.700445 495.70602 0.359280185 478.921009 672.700445 495.70602 1330.61812 392.075243 672.700445 495.70602 1330.61812 392.075243 672.700445 495.70602 1330.61812 392.075243 672.700445 495.70602 1330.61812 392.075243 672.700445 495.70602 1330.61812 392.075243 672.700445 495.70602 1330.61812 392.075243 672.700445 495.70602 1330.61812 392.075243 672.700445 495.70602 14.7827681 392.075243 672.700445 495.70602 58.2351999 292.973628 672.700445 495.70602 128.542711 202.732392 672.700445 495.70602 222.632527 125.295509 672.700445 495.70602 336.39247 64.0473424 672.700445 495.70602 464.850686 21.6647317 672.700445 495.70602 602.392933 -1.37903878e-15 672.700445 495.70602 743.007956 -5.68434189e-14 672.700445 495.70602 880.550203 21.6647317 672.700445 495.70602 1009.00842 64.0473424 672.700445 495.70602 1122.76836 125.295509 672.700445 495.70602 1216.85818 202.732392 672.700445 495.70602 1287.16569 292.973628 672.700445 495.70602 1330.61812 392.075243 672.700445 495.70602 1342.77821 495.70602 672.700445 495.70602 1330.61812 392.075243 672.700445 495.70602 1330.61812 392.075243 672.700445 495.70602 1330.61812 392.075243 672.700445 495.70602 1330.61812 392.075243 672.700445 495.70602 1330.61812 392.075243 672.700445 495.70602 1330.61812 392.075243 672.700445 495.70602 1330.61812 392.075243"></polygon>
                <path d="M1014.92466,521.430466 C934.41432,425.094983 811.259203,363.493151 673.231897,363.493151 C535.272165,363.493151 412.170063,425.034681 331.657414,521.289003" id="Oval-2" stroke="url(#linearGradient-4)" stroke-width="7" fill="#EDF6F3"></path>
            </g>
            <g id="mountain-range" transform="translate(65.000000, 519.000000)">
                <polyline id="Polygon" stroke="#70577D" stroke-width="4" stroke-linejoin="bevel" points="847.807634 224.207059 792.907082 197.958653 735.021957 224.207059 792.907082 251.639663 792.907082 368.431195 792.907082 251.639663 847.807634 224.207059 847.807634 291.368981 847.807634 224.207059 792.907082 251.639663 735.021957 224.207059 735.021957 271.324243"></polyline>
                <polyline id="Polygon" stroke="#70577D" stroke-width="4" stroke-linejoin="bevel" points="758.383311 282.995979 703.482759 256.747573 645.597633 282.995979 703.482759 310.428584 703.482759 349.648766 703.482759 310.428584 758.383311 282.995979 758.383311 328.362614 758.383311 282.995979 703.482759 310.428584 645.597633 282.995979 645.597633 318.42617"></polyline>
                <polyline id="Polygon" stroke="#70577D" stroke-width="4" stroke-linejoin="bevel" points="913.48069 305.851386 867.287493 283.019417 809.402367 309.267824 867.287493 336.700428 867.287493 343.998019 867.287493 336.700428 904.014979 315.342354 899.831347 317.735053 904.014979 315.342354 867.287493 336.700428 809.402367 309.267824 809.402367 368.255689"></polyline>
                <path d="M0.0610818082,224.504854 C186.104158,86.9831746 298.145219,18.2223348 336.184265,18.2223348 C393.242832,18.2223348 544.547974,158.654906 652.316604,224.504854 C900.382914,82.8261284 1012.10426,0.113115285 1080.60442,0.113115285 C1126.2712,0.113115285 1251.23842,74.9103616 1455.50609,224.504854 C1295.04874,159.925528 1194.16424,127.635865 1152.85258,127.635865 C1090.88511,127.635865 1082.69858,160.619279 936.43672,289.355817 C877.377908,329.647805 844.090188,368.121132 800.356343,368.121132 C761.127438,372.342832 762.801446,313.591806 737.179039,309.951659 C711.556631,306.311512 706.168685,368.121132 680.320583,368.121132 C654.472481,368.121132 660.698335,309.951659 629.77356,309.951659 C598.848784,309.951659 606.926476,368.121132 575.390176,368.121132 C543.853875,368.121132 544.474511,343.716243 544.474511,309.951659 C544.474511,296.814308 544.099398,285.900382 529.245572,285.900382 C514.391745,285.900382 499.087833,309.951659 487.275554,309.951659 C477.135121,309.951659 459.561723,309.951659 434.55536,309.951659" id="Line-3" stroke="url(#linearGradient-5)" stroke-width="6" stroke-linecap="square"></path>
                <path d="M836.582134,115.941999 C860.61705,104.221136 891.658885,98.3607049 929.707641,98.3607049 C986.780774,98.3607049 995.184371,134.681547 1045.32169,134.681547 C1095.45902,134.681547 1106.75684,98.3607049 1151.21941,98.3607049 C1195.68198,98.3607049 1206.57712,134.681547 1244.12412,134.681547 C1269.15545,134.681547 1288.82044,129.020248 1303.11908,117.697649" id="Line-4" stroke="#70577D" stroke-width="5" stroke-linecap="square"></path>
            </g>
        </g>
    </g>
</svg>